# xmcd CD database file
#
# Track frame offsets:
#	150
#	27949
#	55041
#	89207
#	122832
#	155309
#	200861
#	221143
#	240568
#	275474
#
# Disc length: 4346 seconds
#
# Revision: 0
# Processed by: cddbd v1.5.2PL0 Copyright (c) Steve Scherf et al.
# Submitted via: Feurio! 1.67 - http://www.feurio.com
#
DISCID=9410f80a
DTITLE=Rory Gallagher - I'm ready (for jazz times) Live [CD2]
DYEAR=1900
DGENRE=
TTITLE0=Shadow Play
TTITLE1=Skin Kickers
TTITLE2=Born under abad Sign
TTITLE3=I'm ready
TTITLE4=Politician
TTITLE5=Bulfrog Blues
TTITLE6=Pistol Slapper Blues
TTITLE7=The Cuckoo
TTITLE8=Going to my Hometown
TTITLE9=In your Town
EXTD=
EXTT0=
EXTT1=
EXTT2=
EXTT3=
EXTT4=
EXTT5=
EXTT6=
EXTT7=
EXTT8=
EXTT9=
PLAYORDER=
